<svg id="Layer_1" data-name="Layer 1" xmlns="http://www.w3.org/2000/svg" viewBox="0 0 1080 1080"><defs><style>.cls-1{fill:#fff;}</style></defs><rect class="cls-1" width="1080" height="1080" rx="133.13"/><path d="M618.59,935.21c-59.14,0-116.5-22.86-161.78-64.54C413.6,830.91,387.06,779.09,384,728.51c-2.76-45.31,7.2-88.3,28.79-124.33a197,197,0,0,1,79.76-74.54c54.61-27.74,114.43-25.36,152.39,6.08a42.5,42.5,0,0,1-54.21,65.47c-9.47-7.84-33.6-9-59.69,4.23-15.78,8-66.93,40.23-62.2,117.92,1.73,28.44,18.76,60.13,45.55,84.79,29.52,27.17,66.48,42.08,104.23,42.08h1.53c80-.86,135.7-36.91,165.71-107.15,44.86-105,18.48-214.32-78.43-324.85-64.11-73.12-140.75-124.69-174.6-144.91C380.35,373,294.07,498.57,276.2,646.94c-13.79,114.61,19.56,199,19.9,199.8a42.5,42.5,0,1,1-78.82,31.82c-1.72-4.26-41.85-105.71-25.47-241.78,9.63-79.93,36.7-155.55,80.48-224.75,53.95-85.29,133.35-160.6,236-223.84l0,0c7.88-4.79,22-10.06,40.05-2.8,2.3.93,4.92,2.13,8,3.69,5.28,2.67,12,6.38,19.31,10.74,12.9,7.64,33.71,20.7,59.59,39.51,59.2,43,141.44,113.58,197.06,205.24C863,495.17,882.09,546.78,889.07,598c8.21,60.25-.23,120.28-25.07,178.43C820.79,877.6,734.5,934,621,935.19Zm-65.2-675-.52.32-.5.31Z"/></svg>